<mxfile host="app.diagrams.net" agent="Mozilla/5.0 (Windows NT 10.0; Win64; x64) AppleWebKit/537.36 (KHTML, like Gecko) Chrome/133.0.0.0 Safari/537.36" version="26.0.14">
  <diagram name="Page-1" id="GWwJeI0b-RRQrqDYT52z">
    <mxGraphModel dx="1834" dy="1188" grid="1" gridSize="10" guides="1" tooltips="1" connect="1" arrows="1" fold="1" page="0" pageScale="1" pageWidth="827" pageHeight="1169" math="0" shadow="0" adaptiveColors="auto">
      <root>
        <mxCell id="0" />
        <mxCell id="1" parent="0" />
        <mxCell id="VnYPEPrBsgzx5o1hpEIG-42" value="&lt;b&gt;Heroes_In_Movies&lt;/b&gt;" style="swimlane;fontStyle=0;childLayout=stackLayout;horizontal=1;startSize=26;fillColor=none;horizontalStack=0;resizeParent=1;resizeParentMax=0;resizeLast=0;collapsible=1;marginBottom=0;whiteSpace=wrap;html=1;labelBackgroundColor=none;strokeColor=#0F8B8D;fontColor=#143642;rounded=1;shadow=1;labelBorderColor=none;" vertex="1" parent="1">
          <mxGeometry x="-10" y="-236" width="200" height="78" as="geometry" />
        </mxCell>
        <mxCell id="VnYPEPrBsgzx5o1hpEIG-43" value="Long movie_id" style="text;strokeColor=none;fillColor=none;align=left;verticalAlign=top;spacingLeft=4;spacingRight=4;overflow=hidden;rotatable=0;points=[[0,0.5],[1,0.5]];portConstraint=eastwest;whiteSpace=wrap;html=1;labelBackgroundColor=none;fontColor=#143642;rounded=1;" vertex="1" parent="VnYPEPrBsgzx5o1hpEIG-42">
          <mxGeometry y="26" width="200" height="26" as="geometry" />
        </mxCell>
        <mxCell id="VnYPEPrBsgzx5o1hpEIG-46" value="Long hero_id" style="text;strokeColor=none;fillColor=none;align=left;verticalAlign=top;spacingLeft=4;spacingRight=4;overflow=hidden;rotatable=0;points=[[0,0.5],[1,0.5]];portConstraint=eastwest;whiteSpace=wrap;html=1;labelBackgroundColor=none;fontColor=#143642;rounded=1;" vertex="1" parent="VnYPEPrBsgzx5o1hpEIG-42">
          <mxGeometry y="52" width="200" height="26" as="geometry" />
        </mxCell>
        <mxCell id="VnYPEPrBsgzx5o1hpEIG-20" value="&lt;b&gt;Hero_stats&lt;/b&gt;" style="swimlane;fontStyle=0;childLayout=stackLayout;horizontal=1;startSize=26;fillColor=none;horizontalStack=0;resizeParent=1;resizeParentMax=0;resizeLast=0;collapsible=1;marginBottom=0;whiteSpace=wrap;html=1;labelBackgroundColor=none;strokeColor=#0F8B8D;fontColor=#143642;rounded=1;shadow=1;" vertex="1" parent="1">
          <mxGeometry x="-300" y="-40" width="120" height="234" as="geometry" />
        </mxCell>
        <mxCell id="VnYPEPrBsgzx5o1hpEIG-21" value="Long id" style="text;strokeColor=none;fillColor=none;align=left;verticalAlign=top;spacingLeft=4;spacingRight=4;overflow=hidden;rotatable=0;points=[[0,0.5],[1,0.5]];portConstraint=eastwest;whiteSpace=wrap;html=1;labelBackgroundColor=none;fontColor=#143642;rounded=1;" vertex="1" parent="VnYPEPrBsgzx5o1hpEIG-20">
          <mxGeometry y="26" width="120" height="26" as="geometry" />
        </mxCell>
        <mxCell id="VnYPEPrBsgzx5o1hpEIG-22" value="Long strength" style="text;strokeColor=none;fillColor=none;align=left;verticalAlign=top;spacingLeft=4;spacingRight=4;overflow=hidden;rotatable=0;points=[[0,0.5],[1,0.5]];portConstraint=eastwest;whiteSpace=wrap;html=1;labelBackgroundColor=none;fontColor=#143642;rounded=1;" vertex="1" parent="VnYPEPrBsgzx5o1hpEIG-20">
          <mxGeometry y="52" width="120" height="26" as="geometry" />
        </mxCell>
        <mxCell id="VnYPEPrBsgzx5o1hpEIG-24" value="Long intelligence" style="text;strokeColor=none;fillColor=none;align=left;verticalAlign=top;spacingLeft=4;spacingRight=4;overflow=hidden;rotatable=0;points=[[0,0.5],[1,0.5]];portConstraint=eastwest;whiteSpace=wrap;html=1;labelBackgroundColor=none;fontColor=#143642;rounded=1;" vertex="1" parent="VnYPEPrBsgzx5o1hpEIG-20">
          <mxGeometry y="78" width="120" height="26" as="geometry" />
        </mxCell>
        <mxCell id="VnYPEPrBsgzx5o1hpEIG-29" value="Long combat" style="text;strokeColor=none;fillColor=none;align=left;verticalAlign=top;spacingLeft=4;spacingRight=4;overflow=hidden;rotatable=0;points=[[0,0.5],[1,0.5]];portConstraint=eastwest;whiteSpace=wrap;html=1;labelBackgroundColor=none;fontColor=#143642;rounded=1;" vertex="1" parent="VnYPEPrBsgzx5o1hpEIG-20">
          <mxGeometry y="104" width="120" height="26" as="geometry" />
        </mxCell>
        <mxCell id="VnYPEPrBsgzx5o1hpEIG-26" value="Long speed" style="text;strokeColor=none;fillColor=none;align=left;verticalAlign=top;spacingLeft=4;spacingRight=4;overflow=hidden;rotatable=0;points=[[0,0.5],[1,0.5]];portConstraint=eastwest;whiteSpace=wrap;html=1;labelBackgroundColor=none;fontColor=#143642;rounded=1;" vertex="1" parent="VnYPEPrBsgzx5o1hpEIG-20">
          <mxGeometry y="130" width="120" height="26" as="geometry" />
        </mxCell>
        <mxCell id="VnYPEPrBsgzx5o1hpEIG-30" value="Long durability" style="text;strokeColor=none;fillColor=none;align=left;verticalAlign=top;spacingLeft=4;spacingRight=4;overflow=hidden;rotatable=0;points=[[0,0.5],[1,0.5]];portConstraint=eastwest;whiteSpace=wrap;html=1;labelBackgroundColor=none;fontColor=#143642;rounded=1;" vertex="1" parent="VnYPEPrBsgzx5o1hpEIG-20">
          <mxGeometry y="156" width="120" height="26" as="geometry" />
        </mxCell>
        <mxCell id="VnYPEPrBsgzx5o1hpEIG-23" value="Long power" style="text;strokeColor=none;fillColor=none;align=left;verticalAlign=top;spacingLeft=4;spacingRight=4;overflow=hidden;rotatable=0;points=[[0,0.5],[1,0.5]];portConstraint=eastwest;whiteSpace=wrap;html=1;labelBackgroundColor=none;fontColor=#143642;rounded=1;" vertex="1" parent="VnYPEPrBsgzx5o1hpEIG-20">
          <mxGeometry y="182" width="120" height="26" as="geometry" />
        </mxCell>
        <mxCell id="VnYPEPrBsgzx5o1hpEIG-31" value="Long total" style="text;strokeColor=none;fillColor=none;align=left;verticalAlign=top;spacingLeft=4;spacingRight=4;overflow=hidden;rotatable=0;points=[[0,0.5],[1,0.5]];portConstraint=eastwest;whiteSpace=wrap;html=1;labelBackgroundColor=none;fontColor=#143642;rounded=1;" vertex="1" parent="VnYPEPrBsgzx5o1hpEIG-20">
          <mxGeometry y="208" width="120" height="26" as="geometry" />
        </mxCell>
        <mxCell id="VnYPEPrBsgzx5o1hpEIG-15" value="&lt;b&gt;Heroes&lt;/b&gt;" style="swimlane;fontStyle=0;childLayout=stackLayout;horizontal=1;startSize=26;fillColor=none;horizontalStack=0;resizeParent=1;resizeParentMax=0;resizeLast=0;collapsible=1;marginBottom=0;whiteSpace=wrap;html=1;labelBackgroundColor=none;strokeColor=#0F8B8D;fontColor=#143642;rounded=1;shadow=1;" vertex="1" parent="1">
          <mxGeometry x="-310" y="-300" width="160" height="142" as="geometry" />
        </mxCell>
        <mxCell id="VnYPEPrBsgzx5o1hpEIG-16" value="Long hero_id" style="text;strokeColor=none;fillColor=none;align=left;verticalAlign=top;spacingLeft=4;spacingRight=4;overflow=hidden;rotatable=0;points=[[0,0.5],[1,0.5]];portConstraint=eastwest;whiteSpace=wrap;html=1;labelBackgroundColor=none;fontColor=#143642;rounded=1;" vertex="1" parent="VnYPEPrBsgzx5o1hpEIG-15">
          <mxGeometry y="26" width="160" height="26" as="geometry" />
        </mxCell>
        <mxCell id="VnYPEPrBsgzx5o1hpEIG-17" value="VARCHAR(255) name" style="text;strokeColor=none;fillColor=none;align=left;verticalAlign=top;spacingLeft=4;spacingRight=4;overflow=hidden;rotatable=0;points=[[0,0.5],[1,0.5]];portConstraint=eastwest;whiteSpace=wrap;html=1;labelBackgroundColor=none;fontColor=#143642;rounded=1;" vertex="1" parent="VnYPEPrBsgzx5o1hpEIG-15">
          <mxGeometry y="52" width="160" height="26" as="geometry" />
        </mxCell>
        <mxCell id="VnYPEPrBsgzx5o1hpEIG-18" value="VARCHAR(255) imageUrl" style="text;strokeColor=none;fillColor=none;align=left;verticalAlign=top;spacingLeft=4;spacingRight=4;overflow=hidden;rotatable=0;points=[[0,0.5],[1,0.5]];portConstraint=eastwest;whiteSpace=wrap;html=1;labelBackgroundColor=none;fontColor=#143642;rounded=1;" vertex="1" parent="VnYPEPrBsgzx5o1hpEIG-15">
          <mxGeometry y="78" width="160" height="32" as="geometry" />
        </mxCell>
        <mxCell id="VnYPEPrBsgzx5o1hpEIG-19" value="VARCHAR(255) description" style="text;strokeColor=none;fillColor=none;align=left;verticalAlign=top;spacingLeft=4;spacingRight=4;overflow=hidden;rotatable=0;points=[[0,0.5],[1,0.5]];portConstraint=eastwest;whiteSpace=wrap;html=1;labelBackgroundColor=none;fontColor=#143642;rounded=1;" vertex="1" parent="VnYPEPrBsgzx5o1hpEIG-15">
          <mxGeometry y="110" width="160" height="32" as="geometry" />
        </mxCell>
        <mxCell id="VnYPEPrBsgzx5o1hpEIG-41" value="" style="edgeStyle=entityRelationEdgeStyle;fontSize=12;html=1;endArrow=ERoneToMany;startArrow=ERoneToMany;rounded=1;startSize=8;endSize=8;curved=1;entryX=0;entryY=0.192;entryDx=0;entryDy=0;entryPerimeter=0;labelBackgroundColor=none;strokeColor=#A8201A;fontColor=default;" edge="1" parent="1" target="VnYPEPrBsgzx5o1hpEIG-33">
          <mxGeometry width="100" height="100" relative="1" as="geometry">
            <mxPoint x="-150" y="-278" as="sourcePoint" />
            <mxPoint x="159.99999999999994" y="-280" as="targetPoint" />
            <Array as="points">
              <mxPoint x="-40" y="-270.99" />
              <mxPoint x="-40" y="-270.99" />
              <mxPoint x="-32.08000000000001" y="-286.99" />
              <mxPoint x="-52.079999999999984" y="-256.99" />
              <mxPoint x="150" y="-280.99" />
              <mxPoint x="-72.07999999999998" y="-156.99" />
              <mxPoint x="-62.079999999999984" y="-176.99" />
              <mxPoint x="-52.079999999999984" y="-176.99" />
            </Array>
          </mxGeometry>
        </mxCell>
        <mxCell id="VnYPEPrBsgzx5o1hpEIG-33" value="&lt;b&gt;Movies&lt;/b&gt;" style="swimlane;fontStyle=0;childLayout=stackLayout;horizontal=1;startSize=26;fillColor=none;horizontalStack=0;resizeParent=1;resizeParentMax=0;resizeLast=0;collapsible=1;marginBottom=0;whiteSpace=wrap;html=1;labelBackgroundColor=none;strokeColor=#0F8B8D;fontColor=#143642;rounded=1;shadow=1;" vertex="1" parent="1">
          <mxGeometry x="330" y="-300" width="180" height="104" as="geometry" />
        </mxCell>
        <mxCell id="VnYPEPrBsgzx5o1hpEIG-34" value="Long movie_id" style="text;strokeColor=none;fillColor=none;align=left;verticalAlign=top;spacingLeft=4;spacingRight=4;overflow=hidden;rotatable=0;points=[[0,0.5],[1,0.5]];portConstraint=eastwest;whiteSpace=wrap;html=1;labelBackgroundColor=none;fontColor=#143642;rounded=1;" vertex="1" parent="VnYPEPrBsgzx5o1hpEIG-33">
          <mxGeometry y="26" width="180" height="26" as="geometry" />
        </mxCell>
        <mxCell id="VnYPEPrBsgzx5o1hpEIG-37" value="List&amp;lt;heroes&amp;gt; heroes_in_movie" style="text;strokeColor=none;fillColor=none;align=left;verticalAlign=top;spacingLeft=4;spacingRight=4;overflow=hidden;rotatable=0;points=[[0,0.5],[1,0.5]];portConstraint=eastwest;whiteSpace=wrap;html=1;labelBackgroundColor=none;fontColor=#143642;rounded=1;" vertex="1" parent="VnYPEPrBsgzx5o1hpEIG-33">
          <mxGeometry y="52" width="180" height="26" as="geometry" />
        </mxCell>
        <mxCell id="VnYPEPrBsgzx5o1hpEIG-38" value="int release" style="text;strokeColor=none;fillColor=none;align=left;verticalAlign=top;spacingLeft=4;spacingRight=4;overflow=hidden;rotatable=0;points=[[0,0.5],[1,0.5]];portConstraint=eastwest;whiteSpace=wrap;html=1;labelBackgroundColor=none;fontColor=#143642;rounded=1;" vertex="1" parent="VnYPEPrBsgzx5o1hpEIG-33">
          <mxGeometry y="78" width="180" height="26" as="geometry" />
        </mxCell>
        <mxCell id="VnYPEPrBsgzx5o1hpEIG-47" value="" style="edgeStyle=entityRelationEdgeStyle;fontSize=12;html=1;endArrow=ERoneToMany;rounded=1;startSize=8;endSize=8;curved=1;entryX=0;entryY=0.128;entryDx=0;entryDy=0;entryPerimeter=0;exitX=1;exitY=0.5;exitDx=0;exitDy=0;labelBackgroundColor=none;strokeColor=#A8201A;fontColor=default;" edge="1" parent="1" source="VnYPEPrBsgzx5o1hpEIG-19" target="VnYPEPrBsgzx5o1hpEIG-42">
          <mxGeometry width="100" height="100" relative="1" as="geometry">
            <mxPoint x="-150" y="-50" as="sourcePoint" />
            <mxPoint x="-50" y="-150" as="targetPoint" />
          </mxGeometry>
        </mxCell>
        <mxCell id="VnYPEPrBsgzx5o1hpEIG-52" value="1" style="endArrow=open;html=1;endSize=12;startArrow=diamondThin;startSize=14;startFill=1;edgeStyle=orthogonalEdgeStyle;align=left;verticalAlign=bottom;rounded=1;fontSize=12;curved=1;entryX=0.496;entryY=0;entryDx=0;entryDy=0;entryPerimeter=0;labelBackgroundColor=none;strokeColor=#A8201A;fontColor=default;" edge="1" parent="1" target="VnYPEPrBsgzx5o1hpEIG-20">
          <mxGeometry x="-1" y="3" relative="1" as="geometry">
            <mxPoint x="-240.5" y="-158" as="sourcePoint" />
            <mxPoint x="-240.5" y="-48" as="targetPoint" />
          </mxGeometry>
        </mxCell>
        <mxCell id="VnYPEPrBsgzx5o1hpEIG-57" value="&amp;nbsp; &amp;nbsp; Composition" style="edgeLabel;html=1;align=center;verticalAlign=middle;resizable=0;points=[];fontSize=12;labelBackgroundColor=none;fontColor=#143642;rounded=1;" vertex="1" connectable="0" parent="VnYPEPrBsgzx5o1hpEIG-52">
          <mxGeometry x="-0.2761" y="-6" relative="1" as="geometry">
            <mxPoint as="offset" />
          </mxGeometry>
        </mxCell>
        <mxCell id="VnYPEPrBsgzx5o1hpEIG-56" value="" style="edgeStyle=entityRelationEdgeStyle;fontSize=12;html=1;endArrow=ERoneToMany;rounded=1;startSize=8;endSize=8;curved=1;entryX=0.995;entryY=0.115;entryDx=0;entryDy=0;entryPerimeter=0;exitX=0;exitY=0.5;exitDx=0;exitDy=0;labelBackgroundColor=none;strokeColor=#A8201A;fontColor=default;" edge="1" parent="1" source="VnYPEPrBsgzx5o1hpEIG-38" target="VnYPEPrBsgzx5o1hpEIG-42">
          <mxGeometry width="100" height="100" relative="1" as="geometry">
            <mxPoint x="200" y="40" as="sourcePoint" />
            <mxPoint x="300" y="-60" as="targetPoint" />
            <Array as="points">
              <mxPoint x="320" y="-200" />
            </Array>
          </mxGeometry>
        </mxCell>
      </root>
    </mxGraphModel>
  </diagram>
</mxfile>
